# xmcd CD database file
#
# Track frame offsets:
#	150
#	15264
#	29629
#	47961
#	63131
#	81064
#	98567
#	115009
#	134619
#	154346
#	166935
#	179266
#	197988
#
# Disc length: 2920 seconds
#
# Revision: 0
# Processed by: cddbd v1.5.1PL2 Copyright (c) Steve Scherf et al.
# Submitted via: CDex 1.40Beta9
#
DISCID=a50b660d
DTITLE=Darcy Lynne Ward - What Else Is New
DYEAR=2005
DGENRE=Country
TTITLE0=What Else Is New
TTITLE1=That Girl's In Love
TTITLE2=Runaway Train
TTITLE3=Thrill
TTITLE4=7 Yr Rain
TTITLE5=Cowgirl's Lullaby
TTITLE6=Jealous Jane
TTITLE7=Ain't Gonna Find Me
TTITLE8=Neap Tide
TTITLE9=Readin' My Heart
TTITLE10=Fly Me To The Moon
TTITLE11=Small Moves
TTITLE12=Banks of Clyde
EXTD=YEAR: 2005 ID3G: 2
EXTT0=
EXTT1=
EXTT2=
EXTT3=
EXTT4=
EXTT5=
EXTT6=
EXTT7=
EXTT8=
EXTT9=
EXTT10=
EXTT11=
EXTT12=
PLAYORDER=
